<?xml version="1.0" encoding="utf-8"?>
<!-- Generator: Adobe Illustrator 23.1.0, SVG Export Plug-In . SVG Version: 6.00 Build 0)  -->
<svg version="1.1" id="Layer_1" xmlns="http://www.w3.org/2000/svg" xmlns:xlink="http://www.w3.org/1999/xlink" x="0px" y="0px"
	 viewBox="0 0 595.28 841.89" style="enable-background:new 0 0 595.28 841.89;" xml:space="preserve">
<style type="text/css">
	.st0{fill:#FFFFFF;}
</style>
<path class="st0" d="M157.24,276.57c19.47-27.92,33.93-48.65,62.37-60.54c36.03-15.06,86.36-12.52,116.48,14.68
	c34.68,31.31,20.74,75.58,53.2,89.89c21.76,9.6,32.73-8.24,61.45-0.92c37.42,9.54,71.86,53.33,66.04,87.13
	c-5.18,30.07-38.36,29.88-52.28,71.54c-9.33,27.94,2.94,35.97-7.34,56.87c-16.01,32.55-59.9,41.75-92.64,48.61
	c-33.59,7.04-59.08,5-110.06,0.92c-58.1-4.65-87.35-7.3-97.22-22.93c-16.19-25.64,14.6-55.7-5.5-88.05
	c-10.88-17.5-24.7-16.43-33.94-36.69c-4.37-9.57-6.83-21.98-1.83-51.36C120.5,359.07,127.19,319.66,157.24,276.57z"/>
</svg>
